<svg width="18" height="18" viewBox="0 0 18 18" fill="none" xmlns="http://www.w3.org/2000/svg">
<path d="M8.25001 9.75001H0.75001C0.53701 9.75001 0.35901 9.67801 0.21601 9.53401C0.0730104 9.39001 0.00101027 9.21151 1.0274e-05 8.99851C-0.000989726 8.78551 0.0710104 8.60751 0.21601 8.46451C0.36101 8.32151 0.53901 8.25001 0.75001 8.25001H8.25001V0.75001C8.25001 0.53701 8.32201 0.35901 8.46601 0.21601C8.61001 0.0730104 8.78851 0.00101027 9.00151 1.0274e-05C9.21451 -0.000989726 9.39251 0.0710104 9.53551 0.21601C9.67851 0.36101 9.75001 0.53901 9.75001 0.75001V8.25001H17.25C17.463 8.25001 17.641 8.32201 17.784 8.46601C17.927 8.61001 17.999 8.78851 18 9.00151C18.001 9.21451 17.929 9.39251 17.784 9.53551C17.639 9.67851 17.461 9.75001 17.25 9.75001H9.75001V17.25C9.75001 17.463 9.67801 17.641 9.53401 17.784C9.39001 17.927 9.21151 17.999 8.99851 18C8.78551 18.001 8.60751 17.929 8.46451 17.784C8.32151 17.639 8.25001 17.461 8.25001 17.25V9.75001Z" fill="white"/>
</svg>
