<svg width="24" height="24" viewBox="0 0 24 24" fill="none" xmlns="http://www.w3.org/2000/svg">
<path d="M2.424 24C1.733 24 1.1565 23.769 0.6945 23.307C0.2325 22.845 0.001 22.268 0 21.576V2.424C0 1.733 0.2315 1.1565 0.6945 0.6945C1.1575 0.2325 1.734 0.001 2.424 0H12.0285V1.5H2.424C2.193 1.5 1.981 1.596 1.788 1.788C1.595 1.98 1.499 2.192 1.5 2.424V21.5775C1.5 21.8075 1.596 22.019 1.788 22.212C1.98 22.405 2.1915 22.501 2.4225 22.5H12.0285V24H2.424ZM18.693 17.3085L17.64 16.2285L21.1185 12.75H7.788V11.25H21.1185L17.6385 7.77L18.6915 6.693L24 12L18.693 17.3085Z" fill="white"/>
</svg>
