<svg width="20" height="27" viewBox="0 0 20 27" fill="none" xmlns="http://www.w3.org/2000/svg">
<path d="M9 27V22.5C3.96 22.095 0 17.88 0 12.75V12H1.5V12.75C1.5 14.938 2.36919 17.0365 3.91637 18.5836C5.46354 20.1308 7.56196 21 9.75 21C11.938 21 14.0365 20.1308 15.5836 18.5836C17.1308 17.0365 18 14.938 18 12.75V12H19.5V12.75C19.5 17.88 15.54 22.095 10.5 22.5V27H9ZM9.75 0C10.7446 0 11.6984 0.395088 12.4017 1.09835C13.1049 1.80161 13.5 2.75544 13.5 3.75V12.75C13.5 13.7446 13.1049 14.6984 12.4017 15.4017C11.6984 16.1049 10.7446 16.5 9.75 16.5C8.75544 16.5 7.80161 16.1049 7.09835 15.4017C6.39509 14.6984 6 13.7446 6 12.75V3.75C6 2.75544 6.39509 1.80161 7.09835 1.09835C7.80161 0.395088 8.75544 0 9.75 0ZM9.75 1.5C9.15326 1.5 8.58097 1.73705 8.15901 2.15901C7.73705 2.58097 7.5 3.15326 7.5 3.75V12.75C7.5 13.3467 7.73705 13.919 8.15901 14.341C8.58097 14.7629 9.15326 15 9.75 15C10.3467 15 10.919 14.7629 11.341 14.341C11.7629 13.919 12 13.3467 12 12.75V3.75C12 3.15326 11.7629 2.58097 11.341 2.15901C10.919 1.73705 10.3467 1.5 9.75 1.5Z" fill="white"/>
</svg>
